<?xml version="1.0" encoding="UTF-8"?><svg id="Layer_1" xmlns="http://www.w3.org/2000/svg" viewBox="0 0 521.57 272.55"><defs><style>.cls-1{fill:#fff;}</style></defs><path class="cls-1" d="M265.04,62.85v-22.8h69.25v24.91l-48.14,104.71h48.14v22.8h-75.16v-24.91l48.77-104.72h-42.86Z"/><path class="cls-1" d="M338.63,77c0-21.53,12.67-39.06,40.11-39.06s40.11,17.52,40.11,39.06v78.54c0,21.53-12.67,39.06-40.11,39.06s-40.11-17.52-40.11-39.06V77Zm26.18,77.9c0,11.4,3.38,16.89,13.94,16.89s13.93-5.49,13.93-16.89V77.63c0-11.4-3.38-16.89-13.93-16.89s-13.94,5.49-13.94,16.89v77.27Z"/><path class="cls-1" d="M452.75,192.48h-26.18V40.05h36.74c29.35,0,44.33,12.46,44.33,44.97,0,24.49-9.5,34.41-18.37,38.42l22.17,69.04h-26.6l-18.58-63.12c-3.38,.42-8.87,.63-13.51,.63v62.49Zm0-84.03h9.29c14.15,0,19.42-5.28,19.42-23.43s-5.28-23.43-19.42-23.43h-9.29v46.87Z"/><path class="cls-1" d="M140.38,133.45h22.01l-10.79-68.24h-.44l-10.79,68.24Z"/><polygon class="cls-1" points="206.7 169.68 206.7 124.92 240.48 124.92 240.48 102.12 206.7 102.12 206.7 62.85 250.61 62.85 250.61 40.05 180.52 40.05 180.52 100.16 197.53 192.48 253.57 192.48 253.57 169.68 206.7 169.68"/><polygon class="cls-1" points="166.35 159.21 136.42 159.21 131.85 192.44 170.92 192.44 166.35 159.21"/><rect class="cls-1" y="192.44" width="40.05" height="40.05"/><rect class="cls-1" x="39.93" y="232.5" width="40.05" height="40.05"/><rect class="cls-1" x="131.36" width="40.05" height="40.05"/><path class="cls-1" d="M117.46,126.52c-3.62-6.55-9.16-11.09-16.31-14.26,12.67-5.07,18.16-18.79,18.16-31.88,0-25.97-12.46-40.32-40.54-40.32H39.93V192.48h41.38c10.73,0,19.01-2.5,25.26-6.83l10.89-59.13ZM66.11,61.58h9.92c11.61,0,17.1,7.39,17.1,21.53,0,12.67-7.6,19.42-17.52,19.42h-9.5V61.58Zm10.98,109.36h-10.98v-46.87h8.44c15.62,0,21.53,7.81,21.53,23.43s-5.07,23.43-19,23.43Z"/><g><path class="cls-1" d="M515.07,188.02v4.41h-.54v-4.41h-1.46v-.46h3.46v.46h-1.46Z"/><path class="cls-1" d="M521.08,192.44v-4.45h-.02l-1.36,4.45h-.42l-1.37-4.45h-.02v4.45h-.49v-4.87h.84l1.24,3.94h.01l1.22-3.94h.85v4.87h-.49Z"/></g></svg>